<mxfile host="app.diagrams.net" modified="2020-09-08T16:39:09.492Z" agent="5.0 (X11)" etag="6RZKNOg9cg1wDViq6OyQ" version="13.6.9" type="github">
  <diagram name="Page-1" id="5987fedf-629e-85c4-6858-42fee31821dd">
    <mxGraphModel dx="3175.5" dy="2011" grid="1" gridSize="10" guides="1" tooltips="1" connect="1" arrows="1" fold="1" page="1" pageScale="1.5" pageWidth="1169" pageHeight="826" background="#ffffff" math="0" shadow="0">
      <root>
        <mxCell id="0" style=";html=1;" />
        <mxCell id="1" style=";html=1;" parent="0" />
        <mxCell id="4hsPDXXMt1llvWpG_zCI-21" style="edgeStyle=orthogonalEdgeStyle;rounded=0;orthogonalLoop=1;jettySize=auto;html=1;entryX=0.5;entryY=0;entryDx=0;entryDy=0;fontColor=#000000;curved=1;" edge="1" parent="1" source="4hsPDXXMt1llvWpG_zCI-14" target="4hsPDXXMt1llvWpG_zCI-15">
          <mxGeometry relative="1" as="geometry">
            <Array as="points">
              <mxPoint x="-830" y="-855" />
            </Array>
          </mxGeometry>
        </mxCell>
        <mxCell id="4hsPDXXMt1llvWpG_zCI-23" style="edgeStyle=orthogonalEdgeStyle;rounded=0;orthogonalLoop=1;jettySize=auto;html=1;fontColor=#000000;curved=1;" edge="1" parent="1" source="4hsPDXXMt1llvWpG_zCI-14" target="4hsPDXXMt1llvWpG_zCI-16">
          <mxGeometry relative="1" as="geometry">
            <mxPoint x="-1270" y="-690" as="targetPoint" />
            <Array as="points">
              <mxPoint x="-1270" y="-855" />
            </Array>
          </mxGeometry>
        </mxCell>
        <mxCell id="4hsPDXXMt1llvWpG_zCI-14" value="&lt;h2&gt;&lt;font data-font-src=&quot;https://fonts.googleapis.com/css?family=Hack&quot; face=&quot;Hack&quot;&gt;HA Workers &lt;/font&gt;&lt;/h2&gt;&lt;h2&gt;&lt;font data-font-src=&quot;https://fonts.googleapis.com/css?family=Hack&quot; face=&quot;Hack&quot;&gt;(Apache)&lt;/font&gt;&lt;/h2&gt;" style="shape=ext;double=1;whiteSpace=wrap;html=1;labelBackgroundColor=none;fillColor=#b0e3e6;strokeColor=#0e8088;rounded=1;" vertex="1" parent="1">
          <mxGeometry x="-1160" y="-930" width="220" height="150" as="geometry" />
        </mxCell>
        <mxCell id="4hsPDXXMt1llvWpG_zCI-20" style="edgeStyle=orthogonalEdgeStyle;rounded=0;orthogonalLoop=1;jettySize=auto;html=1;entryX=1;entryY=0.5;entryDx=0;entryDy=0;fontColor=#000000;curved=1;" edge="1" parent="1" source="4hsPDXXMt1llvWpG_zCI-15" target="4hsPDXXMt1llvWpG_zCI-14">
          <mxGeometry relative="1" as="geometry" />
        </mxCell>
        <mxCell id="4hsPDXXMt1llvWpG_zCI-15" value="&lt;h2&gt;&lt;font data-font-src=&quot;https://fonts.googleapis.com/css?family=Hack&quot; face=&quot;Hack&quot;&gt;HA Database&lt;/font&gt;&lt;/h2&gt;&lt;h2&gt;&lt;font data-font-src=&quot;https://fonts.googleapis.com/css?family=Hack&quot; face=&quot;Hack&quot;&gt;(MySQL)&lt;/font&gt;&lt;/h2&gt;" style="shape=ext;double=1;whiteSpace=wrap;html=1;labelBackgroundColor=none;fillColor=#bac8d3;strokeColor=#23445d;rounded=1;" vertex="1" parent="1">
          <mxGeometry x="-940" y="-680" width="220" height="150" as="geometry" />
        </mxCell>
        <mxCell id="4hsPDXXMt1llvWpG_zCI-24" style="edgeStyle=orthogonalEdgeStyle;rounded=0;orthogonalLoop=1;jettySize=auto;html=1;entryX=0;entryY=0.5;entryDx=0;entryDy=0;fontColor=#000000;curved=1;" edge="1" parent="1" source="4hsPDXXMt1llvWpG_zCI-16" target="4hsPDXXMt1llvWpG_zCI-14">
          <mxGeometry relative="1" as="geometry" />
        </mxCell>
        <mxCell id="4hsPDXXMt1llvWpG_zCI-16" value="&lt;h2&gt;&lt;font data-font-src=&quot;https://fonts.googleapis.com/css?family=Hack&quot; face=&quot;Hack&quot;&gt;HA Storage&lt;/font&gt;&lt;/h2&gt;&lt;h2&gt;&lt;font data-font-src=&quot;https://fonts.googleapis.com/css?family=Hack&quot; face=&quot;Hack&quot;&gt;(GlusterFS)&lt;/font&gt;&lt;/h2&gt;" style="shape=ext;double=1;whiteSpace=wrap;html=1;labelBackgroundColor=none;fillColor=#d0cee2;strokeColor=#56517e;rounded=1;" vertex="1" parent="1">
          <mxGeometry x="-1380" y="-680" width="220" height="150" as="geometry" />
        </mxCell>
        <mxCell id="4hsPDXXMt1llvWpG_zCI-17" value="&lt;div align=&quot;center&quot;&gt;HA Entreprise Architecture&lt;/div&gt;" style="text;strokeColor=none;fillColor=none;html=1;fontSize=24;fontStyle=1;verticalAlign=middle;align=center;labelBackgroundColor=none;rounded=1;" vertex="1" parent="1">
          <mxGeometry x="-1390" y="-750" width="680" height="40" as="geometry" />
        </mxCell>
        <mxCell id="4hsPDXXMt1llvWpG_zCI-31" value="&lt;div&gt;AA&lt;/div&gt;&lt;div&gt;&lt;br&gt;&lt;/div&gt;" style="text;html=1;align=center;verticalAlign=middle;resizable=0;points=[];autosize=1;fontColor=#000000;" vertex="1" parent="1">
          <mxGeometry x="-1095" y="-1075" width="30" height="30" as="geometry" />
        </mxCell>
        <mxCell id="4hsPDXXMt1llvWpG_zCI-33" value="&lt;div&gt;AA&lt;/div&gt;&lt;div&gt;&lt;br&gt;&lt;/div&gt;" style="text;html=1;align=center;verticalAlign=middle;resizable=0;points=[];autosize=1;fontColor=#000000;" vertex="1" parent="1">
          <mxGeometry x="-320" y="-700" width="30" height="30" as="geometry" />
        </mxCell>
        <mxCell id="4hsPDXXMt1llvWpG_zCI-34" value="&lt;div&gt;AA&lt;/div&gt;&lt;div&gt;&lt;br&gt;&lt;/div&gt;" style="text;html=1;align=center;verticalAlign=middle;resizable=0;points=[];autosize=1;fontColor=#000000;" vertex="1" parent="1">
          <mxGeometry x="-1040" y="-320" width="30" height="30" as="geometry" />
        </mxCell>
        <mxCell id="4hsPDXXMt1llvWpG_zCI-35" value="&lt;div&gt;AA&lt;/div&gt;&lt;div&gt;&lt;br&gt;&lt;/div&gt;" style="text;html=1;align=center;verticalAlign=middle;resizable=0;points=[];autosize=1;fontColor=#000000;" vertex="1" parent="1">
          <mxGeometry x="-1710" y="-700" width="30" height="30" as="geometry" />
        </mxCell>
      </root>
    </mxGraphModel>
  </diagram>
</mxfile>
